# Blender v2.81 (sub 16) OBJ File: 'cc.blend'
# www.blender.org
mtllib cc.mtl
o Cube_Cube.001
v -6.000001 1.000000 4.500000
v -6.000001 1.000000 -9.000001
v 6.000001 1.000000 9.000001
v 6.000001 1.000000 -9.000001
v -6.000001 1.000000 0.000000
v -6.000001 1.000000 -4.500000
v -3.000000 1.000000 -9.000001
v 0.000000 1.000000 -9.000001
v 3.000000 1.000000 -9.000001
v 6.000001 1.000000 -4.500000
v 6.000001 1.000000 0.000000
v 6.000001 1.000000 4.500000
v 3.000000 1.000000 9.000001
v 0.000000 1.000000 9.000001
v -3.000000 1.000000 9.000001
v 3.000000 1.000000 -4.500000
v 0.000000 1.000000 -4.500001
v -3.000000 1.000000 -4.500000
v 3.000000 1.000000 -0.000000
v 0.000000 1.000000 0.000000
v -3.000000 1.000000 0.000000
v 3.000000 1.000000 4.500000
v 0.000000 1.000000 4.500000
v -3.000000 1.000000 4.500000
vt 0.368617 0.343155
vt 0.304732 0.500800
vt 0.304842 0.343029
vt 0.368397 0.658698
vt 0.368507 0.500926
vt 0.241067 0.342902
vt 0.304622 0.658572
vt 0.240957 0.500674
vt 0.432393 0.343281
vt 0.368728 0.185383
vt 0.432503 0.185510
vt 0.432282 0.501053
vt 0.432172 0.658825
vt 0.432062 0.816596
vt 0.368287 0.816469
vt 0.304511 0.816343
vt 0.240846 0.656345
vt 0.230624 0.820291
vt 0.178238 0.633121
vt 0.177181 0.500547
vt 0.177292 0.342776
vt 0.177402 0.185004
vt 0.241177 0.185131
vt 0.304952 0.185257
vt 0.230820 0.816217
vt 0.177071 0.633121
vn -0.0000 1.0000 0.0000
usemtl Material.001
s off
f 16/1/1 20/2/1 19/3/1
f 18/4/1 20/2/1 17/5/1
f 20/2/1 22/6/1 19/3/1
f 21/7/1 23/8/1 20/2/1
f 9/9/1 10/10/1 4/11/1
f 8/12/1 16/1/1 9/9/1
f 7/13/1 17/5/1 8/12/1
f 2/14/1 18/4/1 7/13/1
f 6/15/1 21/7/1 18/4/1
f 5/16/1 24/17/1 21/7/1
f 24/17/1 1/18/1 15/19/1
f 24/17/1 14/20/1 23/8/1
f 23/8/1 13/21/1 22/6/1
f 22/6/1 3/22/1 12/23/1
f 19/3/1 12/23/1 11/24/1
f 16/1/1 11/24/1 10/10/1
f 16/1/1 17/5/1 20/2/1
f 18/4/1 21/7/1 20/2/1
f 20/2/1 23/8/1 22/6/1
f 21/7/1 24/17/1 23/8/1
f 9/9/1 16/1/1 10/10/1
f 8/12/1 17/5/1 16/1/1
f 7/13/1 18/4/1 17/5/1
f 2/14/1 6/15/1 18/4/1
f 6/15/1 5/16/1 21/7/1
f 5/16/1 1/25/1 24/17/1
f 24/17/1 15/26/1 14/20/1
f 23/8/1 14/20/1 13/21/1
f 22/6/1 13/21/1 3/22/1
f 19/3/1 22/6/1 12/23/1
f 16/1/1 19/3/1 11/24/1
